<?xml version="1.0" encoding="utf-8"?>
<!-- Generator: Adobe Illustrator 16.0.0, SVG Export Plug-In . SVG Version: 6.00 Build 0)  -->
<!DOCTYPE svg PUBLIC "-//W3C//DTD SVG 1.1//EN" "http://www.w3.org/Graphics/SVG/1.1/DTD/svg11.dtd">
<svg version="1.1" id="Calque_1" xmlns="http://www.w3.org/2000/svg" xmlns:xlink="http://www.w3.org/1999/xlink" x="0px" y="0px"
	 width="32px" height="19.607px" viewBox="0 0 32 19.607" enable-background="new 0 0 32 19.607" xml:space="preserve">
<path fill="#FFFFFF" d="M31.998,9.782C31.999,9.777,32,9.772,32,9.768c0-0.002-0.001-0.005-0.001-0.007
	c0-0.084-0.017-0.167-0.025-0.25c-0.008-0.075-0.008-0.149-0.022-0.224c-0.001-0.006-0.001-0.012-0.002-0.018
	c-0.017-0.087-0.05-0.167-0.076-0.25c-0.022-0.07-0.037-0.144-0.065-0.212c-0.034-0.083-0.082-0.157-0.125-0.234
	c-0.035-0.065-0.064-0.133-0.104-0.194c-0.002-0.003-0.006-0.006-0.008-0.01c-0.009-0.012-0.02-0.022-0.027-0.034
	c-0.03-0.038-0.062-0.074-0.091-0.112c-0.06-0.074-0.114-0.152-0.183-0.221c-0.003-0.003-0.007-0.005-0.01-0.008
	c-0.025-0.025-0.057-0.044-0.083-0.069c-0.008-0.007-0.017-0.013-0.024-0.021c-0.004-0.003-0.008-0.006-0.012-0.009
	c-0.101-0.087-0.204-0.17-0.316-0.24c0,0,0,0,0,0c-0.115-0.072-0.232-0.14-0.358-0.192c-0.003-0.002-0.006-0.004-0.009-0.005
	L12.9,0.191c-1.276-0.528-2.739,0.077-3.267,1.354C9.105,2.82,9.711,4.532,10.988,5.061l5.937,2.707H2.5c-1.381,0-2.5,1.119-2.5,2.5
	s1.119,2.5,2.5,2.5h14.421l-5.937,2.207c-1.274,0.528-1.881,1.866-1.353,3.142c0.527,1.275,1.99,1.818,3.265,1.291l17.557-7.298
	c0.002-0.001,0.003-0.018,0.005-0.018c0-0.001,0.001-0.009,0.001-0.009c0.099-0.041,0.189-0.1,0.281-0.153
	c0.049-0.027,0.101-0.05,0.146-0.081c0.002-0.001,0.003-0.004,0.005-0.005c0.041-0.027,0.074-0.063,0.112-0.092
	c0.03-0.025,0.063-0.05,0.093-0.075c0.055-0.046,0.114-0.086,0.166-0.137c0.003-0.003,0.005-0.007,0.009-0.01
	c0.043-0.044,0.077-0.095,0.117-0.142c0.035-0.044,0.073-0.085,0.107-0.131c0.024-0.031,0.053-0.058,0.075-0.09
	c0.003-0.005,0.005-0.011,0.009-0.016c0.049-0.074,0.084-0.154,0.124-0.232c0.034-0.065,0.075-0.125,0.104-0.193
	c0.001-0.001,0.002-0.002,0.002-0.003c0.01-0.023,0.013-0.047,0.021-0.07c0.025-0.068,0.042-0.14,0.063-0.21
	c0.017-0.062,0.042-0.12,0.055-0.183c0-0.003,0.001-0.005,0.002-0.008c0.021-0.108,0.026-0.217,0.033-0.327
	C31.987,9.878,31.998,9.831,31.998,9.782z"/>
</svg>
