<svg xmlns="http://www.w3.org/2000/svg" viewBox="0 0 24 26.85">
  <defs>
    <style>
      .cls-1 {
        fill: #707070;
      }
    </style>
  </defs>
  <g id="logout" transform="translate(-305 -95)">
    <path id="Soustraction_2" data-name="Soustraction 2" class="cls-1" d="M-743-15.15a11.753,11.753,0,0,1-8.485-3.617A12.452,12.452,0,0,1-755-27.5a12.454,12.454,0,0,1,3.515-8.733A11.85,11.85,0,0,1-747-39.15v2.669a9.94,9.94,0,0,0-5.6,8.981,9.754,9.754,0,0,0,9.6,9.88,9.754,9.754,0,0,0,9.6-9.88,9.94,9.94,0,0,0-5.6-8.981V-39.15a11.85,11.85,0,0,1,4.486,2.918A12.453,12.453,0,0,1-731-27.5a12.451,12.451,0,0,1-3.514,8.732A11.753,11.753,0,0,1-743-15.15Z" transform="translate(1060 137)"/>
    <rect id="Rectangle_26" data-name="Rectangle 26" class="cls-1" width="2" height="10" rx="1" transform="translate(316 95)"/>
  </g>
</svg>
